<?xml version="1.0" encoding="UTF-8"?>
<svg id="Layer_1" data-name="Layer 1" xmlns="http://www.w3.org/2000/svg" viewBox="0 0 185.39 185.39">
  <g>
    <path d="M147.21,33.59h-12.2c-6.6,0-12-5.4-12-12v-12.21c0-1.49.27-2.91.77-4.22l33.06,23.57c-2.19,2.94-5.7,4.86-9.63,4.86Z" style="fill: #888b8d; stroke-width: 0px;"/>
    <g>
      <path d="M156.84,28.73l2.37,1.69v114.54c0,6.6-5.4,12-12,12H35.95c-6.6,0-12-5.4-12-12V17.16c0-6.6,5.4-12,12-12h87.83c-.5,1.31-.77,2.73-.77,4.22v12.21c0,6.6,5.4,12,12,12h12.2c3.93,0,7.44-1.92,9.63-4.86Z" style="fill: none; stroke: #666766; stroke-miterlimit: 10; stroke-width: 3px;"/>
      <line x1="156.84" y1="28.73" x2="123.78" y2="5.16" style="fill: none; stroke: #666766; stroke-miterlimit: 10; stroke-width: 3px;"/>
    </g>
  </g>
  <line x1="50.77" y1="35.9" x2="105.12" y2="35.9" style="fill: none; stroke: #666766; stroke-miterlimit: 10; stroke-width: 3px;"/>
  <line x1="50.77" y1="60.96" x2="118.23" y2="60.96" style="fill: none; stroke: #666766; stroke-miterlimit: 10; stroke-width: 3px;"/>
  <line x1="50.77" y1="88.44" x2="105.12" y2="88.44" style="fill: none; stroke: #666766; stroke-miterlimit: 10; stroke-width: 3px;"/>
  <circle cx="91.59" cy="148.47" r="32.89" style="fill: #16b89e; stroke: #666766; stroke-miterlimit: 10; stroke-width: 3px;"/>
  <line x1="71.1" y1="148.78" x2="92.7" y2="131.38" style="fill: none; stroke: #666766; stroke-miterlimit: 10; stroke-width: 3px;"/>
  <line x1="111.44" y1="150.22" x2="92.24" y2="129.94" style="fill: none; stroke: #666766; stroke-miterlimit: 10; stroke-width: 3px;"/>
  <line x1="92.7" y1="131.06" x2="92.7" y2="167" style="fill: none; stroke: #666766; stroke-miterlimit: 10; stroke-width: 3px;"/>
  <rect width="185.39" height="185.39" style="fill: none; stroke-width: 0px;"/>
</svg>